<mxfile host="app.diagrams.net" modified="2023-07-19T04:43:03.929Z" agent="Mozilla/5.0 (Windows NT 10.0; Win64; x64) AppleWebKit/537.36 (KHTML, like Gecko) Chrome/114.0.0.0 Safari/537.36" etag="8AAgvIz-HnN3_bf9mmSd" version="21.6.1" type="device">
  <diagram name="Page-1" id="Ld6VU5L_5nnYTtvVpeCB">
    <mxGraphModel dx="1903" dy="1829" grid="1" gridSize="10" guides="1" tooltips="1" connect="1" arrows="1" fold="1" page="1" pageScale="1" pageWidth="850" pageHeight="1100" math="0" shadow="0">
      <root>
        <mxCell id="0" />
        <mxCell id="1" parent="0" />
        <mxCell id="hPgQsAuhn1gbhex_ZGjj-3" value="" style="rounded=0;whiteSpace=wrap;html=1;fillColor=#d5e8d4;strokeColor=#82b366;" parent="1" vertex="1">
          <mxGeometry x="50" y="-180" width="730" height="710" as="geometry" />
        </mxCell>
        <mxCell id="hPgQsAuhn1gbhex_ZGjj-4" value="" style="rounded=0;whiteSpace=wrap;html=1;fillColor=#fff2cc;strokeColor=#d6b656;" parent="1" vertex="1">
          <mxGeometry x="70" y="-150" width="670" height="570" as="geometry" />
        </mxCell>
        <mxCell id="hPgQsAuhn1gbhex_ZGjj-5" value="DUT" style="rounded=0;whiteSpace=wrap;html=1;" parent="1" vertex="1">
          <mxGeometry x="342.5" y="450" width="95" height="55" as="geometry" />
        </mxCell>
        <mxCell id="hPgQsAuhn1gbhex_ZGjj-8" value="" style="rounded=0;whiteSpace=wrap;html=1;fillColor=#ffe6cc;strokeColor=#d79b00;" parent="1" vertex="1">
          <mxGeometry x="80" y="-10" width="630" height="400" as="geometry" />
        </mxCell>
        <mxCell id="hPgQsAuhn1gbhex_ZGjj-9" value="" style="rounded=0;whiteSpace=wrap;html=1;fillColor=#e1d5e7;strokeColor=#9673a6;" parent="1" vertex="1">
          <mxGeometry x="110" y="170" width="240" height="170" as="geometry" />
        </mxCell>
        <mxCell id="hPgQsAuhn1gbhex_ZGjj-10" value="" style="rounded=0;whiteSpace=wrap;html=1;fillColor=#e1d5e7;strokeColor=#9673a6;" parent="1" vertex="1">
          <mxGeometry x="420" y="170" width="240" height="170" as="geometry" />
        </mxCell>
        <mxCell id="hPgQsAuhn1gbhex_ZGjj-11" value="apb_2_i2c_sb" style="rounded=0;whiteSpace=wrap;html=1;" parent="1" vertex="1">
          <mxGeometry x="140" y="100" width="110" height="50" as="geometry" />
        </mxCell>
        <mxCell id="hPgQsAuhn1gbhex_ZGjj-12" value="m_apb_seqr" style="rounded=0;whiteSpace=wrap;html=1;" parent="1" vertex="1">
          <mxGeometry x="250" y="210" width="80" height="40" as="geometry" />
        </mxCell>
        <mxCell id="hPgQsAuhn1gbhex_ZGjj-13" value="m_apb_mon" style="rounded=0;whiteSpace=wrap;html=1;" parent="1" vertex="1">
          <mxGeometry x="120" y="290" width="80" height="40" as="geometry" />
        </mxCell>
        <mxCell id="hPgQsAuhn1gbhex_ZGjj-14" value="m_apb_drv" style="rounded=0;whiteSpace=wrap;html=1;" parent="1" vertex="1">
          <mxGeometry x="250" y="290" width="80" height="40" as="geometry" />
        </mxCell>
        <mxCell id="hPgQsAuhn1gbhex_ZGjj-16" value="m_i2c_drv" style="rounded=0;whiteSpace=wrap;html=1;" parent="1" vertex="1">
          <mxGeometry x="560" y="290" width="80" height="40" as="geometry" />
        </mxCell>
        <mxCell id="hPgQsAuhn1gbhex_ZGjj-17" value="m_i2c_seqr" style="rounded=0;whiteSpace=wrap;html=1;" parent="1" vertex="1">
          <mxGeometry x="560" y="210" width="80" height="40" as="geometry" />
        </mxCell>
        <mxCell id="hPgQsAuhn1gbhex_ZGjj-19" value="m_apb_agent" style="text;html=1;strokeColor=none;fillColor=none;align=center;verticalAlign=middle;whiteSpace=wrap;rounded=0;" parent="1" vertex="1">
          <mxGeometry x="280" y="170" width="60" height="30" as="geometry" />
        </mxCell>
        <mxCell id="hPgQsAuhn1gbhex_ZGjj-23" value="m_i2c_agent" style="text;html=1;strokeColor=none;fillColor=none;align=center;verticalAlign=middle;whiteSpace=wrap;rounded=0;" parent="1" vertex="1">
          <mxGeometry x="590" y="170" width="60" height="30" as="geometry" />
        </mxCell>
        <mxCell id="hPgQsAuhn1gbhex_ZGjj-24" value="" style="ellipse;whiteSpace=wrap;html=1;aspect=fixed;" parent="1" vertex="1">
          <mxGeometry x="285" y="250" width="10" height="10" as="geometry" />
        </mxCell>
        <mxCell id="hPgQsAuhn1gbhex_ZGjj-25" value="" style="whiteSpace=wrap;html=1;aspect=fixed;" parent="1" vertex="1">
          <mxGeometry x="285" y="279" width="10" height="10" as="geometry" />
        </mxCell>
        <mxCell id="hPgQsAuhn1gbhex_ZGjj-26" value="" style="endArrow=none;html=1;rounded=0;exitX=0.5;exitY=1;exitDx=0;exitDy=0;" parent="1" source="hPgQsAuhn1gbhex_ZGjj-24" edge="1">
          <mxGeometry width="50" height="50" relative="1" as="geometry">
            <mxPoint x="210" y="310" as="sourcePoint" />
            <mxPoint x="290" y="280" as="targetPoint" />
          </mxGeometry>
        </mxCell>
        <mxCell id="hPgQsAuhn1gbhex_ZGjj-27" value="" style="ellipse;whiteSpace=wrap;html=1;aspect=fixed;" parent="1" vertex="1">
          <mxGeometry x="595" y="250" width="10" height="10" as="geometry" />
        </mxCell>
        <mxCell id="hPgQsAuhn1gbhex_ZGjj-28" value="" style="whiteSpace=wrap;html=1;aspect=fixed;" parent="1" vertex="1">
          <mxGeometry x="595" y="280" width="10" height="10" as="geometry" />
        </mxCell>
        <mxCell id="hPgQsAuhn1gbhex_ZGjj-29" value="" style="endArrow=none;html=1;rounded=0;exitX=0.5;exitY=1;exitDx=0;exitDy=0;" parent="1" source="hPgQsAuhn1gbhex_ZGjj-27" edge="1">
          <mxGeometry width="50" height="50" relative="1" as="geometry">
            <mxPoint x="530" y="310" as="sourcePoint" />
            <mxPoint x="600" y="280" as="targetPoint" />
          </mxGeometry>
        </mxCell>
        <mxCell id="hPgQsAuhn1gbhex_ZGjj-36" value="m_apb_mon" style="rounded=0;whiteSpace=wrap;html=1;" parent="1" vertex="1">
          <mxGeometry x="450" y="290" width="80" height="40" as="geometry" />
        </mxCell>
        <mxCell id="hPgQsAuhn1gbhex_ZGjj-39" value="" style="html=1;whiteSpace=wrap;aspect=fixed;shape=isoRectangle;" parent="1" vertex="1">
          <mxGeometry x="150" y="277" width="20" height="12" as="geometry" />
        </mxCell>
        <mxCell id="hPgQsAuhn1gbhex_ZGjj-40" value="" style="html=1;whiteSpace=wrap;aspect=fixed;shape=isoRectangle;" parent="1" vertex="1">
          <mxGeometry x="470" y="277" width="20" height="12" as="geometry" />
        </mxCell>
        <mxCell id="hPgQsAuhn1gbhex_ZGjj-42" value="" style="ellipse;whiteSpace=wrap;html=1;aspect=fixed;" parent="1" vertex="1">
          <mxGeometry x="155" y="150" width="10" height="10" as="geometry" />
        </mxCell>
        <mxCell id="hPgQsAuhn1gbhex_ZGjj-45" value="" style="endArrow=none;html=1;rounded=0;exitX=0.475;exitY=0.014;exitDx=0;exitDy=0;exitPerimeter=0;entryX=0.5;entryY=1;entryDx=0;entryDy=0;" parent="1" target="hPgQsAuhn1gbhex_ZGjj-42" edge="1">
          <mxGeometry width="50" height="50" relative="1" as="geometry">
            <mxPoint x="159.57999999999998" y="277" as="sourcePoint" />
            <mxPoint x="159.57999999999998" y="140" as="targetPoint" />
          </mxGeometry>
        </mxCell>
        <mxCell id="hPgQsAuhn1gbhex_ZGjj-46" value="apn_inf" style="shape=doubleArrow;whiteSpace=wrap;html=1;" parent="1" vertex="1">
          <mxGeometry x="100" y="450" width="240" height="60" as="geometry" />
        </mxCell>
        <mxCell id="hPgQsAuhn1gbhex_ZGjj-47" value="i2c_inf" style="shape=doubleArrow;whiteSpace=wrap;html=1;" parent="1" vertex="1">
          <mxGeometry x="440" y="450" width="250" height="60" as="geometry" />
        </mxCell>
        <mxCell id="hPgQsAuhn1gbhex_ZGjj-48" value="apb_2_i2c_env" style="text;html=1;strokeColor=none;fillColor=none;align=center;verticalAlign=middle;whiteSpace=wrap;rounded=0;" parent="1" vertex="1">
          <mxGeometry x="100" y="-10" width="60" height="30" as="geometry" />
        </mxCell>
        <mxCell id="hPgQsAuhn1gbhex_ZGjj-49" value="apb_2_i2c_test" style="text;html=1;strokeColor=none;fillColor=none;align=center;verticalAlign=middle;whiteSpace=wrap;rounded=0;" parent="1" vertex="1">
          <mxGeometry x="90" y="-150" width="60" height="30" as="geometry" />
        </mxCell>
        <mxCell id="hPgQsAuhn1gbhex_ZGjj-50" value="Top" style="text;html=1;strokeColor=none;fillColor=none;align=center;verticalAlign=middle;whiteSpace=wrap;rounded=0;" parent="1" vertex="1">
          <mxGeometry x="50" y="-180" width="60" height="30" as="geometry" />
        </mxCell>
        <mxCell id="hPgQsAuhn1gbhex_ZGjj-53" value="m_apb_config" style="rounded=0;whiteSpace=wrap;html=1;" parent="1" vertex="1">
          <mxGeometry x="130" y="190" width="80" height="40" as="geometry" />
        </mxCell>
        <mxCell id="hPgQsAuhn1gbhex_ZGjj-55" value="env_config" style="rounded=0;whiteSpace=wrap;html=1;align=center;" parent="1" vertex="1">
          <mxGeometry x="610" y="60" width="60" height="40" as="geometry" />
        </mxCell>
        <mxCell id="hPgQsAuhn1gbhex_ZGjj-60" value="" style="shape=flexArrow;endArrow=classic;html=1;rounded=0;exitX=0.352;exitY=0.369;exitDx=0;exitDy=0;exitPerimeter=0;entryX=0.827;entryY=1.054;entryDx=0;entryDy=0;entryPerimeter=0;" parent="1" source="hPgQsAuhn1gbhex_ZGjj-46" target="hPgQsAuhn1gbhex_ZGjj-13" edge="1">
          <mxGeometry width="50" height="50" relative="1" as="geometry">
            <mxPoint x="165" y="330" as="sourcePoint" />
            <mxPoint x="180" y="440" as="targetPoint" />
          </mxGeometry>
        </mxCell>
        <mxCell id="hPgQsAuhn1gbhex_ZGjj-61" value="" style="shape=flexArrow;endArrow=classic;startArrow=classic;html=1;rounded=0;exitX=0.727;exitY=0.286;exitDx=0;exitDy=0;exitPerimeter=0;entryX=0.338;entryY=1.012;entryDx=0;entryDy=0;entryPerimeter=0;" parent="1" source="hPgQsAuhn1gbhex_ZGjj-46" target="hPgQsAuhn1gbhex_ZGjj-14" edge="1">
          <mxGeometry width="100" height="100" relative="1" as="geometry">
            <mxPoint x="420" y="380" as="sourcePoint" />
            <mxPoint x="520" y="280" as="targetPoint" />
          </mxGeometry>
        </mxCell>
        <mxCell id="hPgQsAuhn1gbhex_ZGjj-62" value="" style="shape=flexArrow;endArrow=classic;startArrow=classic;html=1;rounded=0;entryX=0.338;entryY=1.012;entryDx=0;entryDy=0;entryPerimeter=0;" parent="1" edge="1">
          <mxGeometry width="100" height="100" relative="1" as="geometry">
            <mxPoint x="610" y="470" as="sourcePoint" />
            <mxPoint x="613" y="330" as="targetPoint" />
          </mxGeometry>
        </mxCell>
        <mxCell id="hPgQsAuhn1gbhex_ZGjj-65" value="" style="shape=flexArrow;endArrow=classic;html=1;rounded=0;exitX=0.352;exitY=0.369;exitDx=0;exitDy=0;exitPerimeter=0;entryX=0.827;entryY=1.054;entryDx=0;entryDy=0;entryPerimeter=0;" parent="1" edge="1">
          <mxGeometry width="50" height="50" relative="1" as="geometry">
            <mxPoint x="500" y="470" as="sourcePoint" />
            <mxPoint x="502" y="330" as="targetPoint" />
          </mxGeometry>
        </mxCell>
        <mxCell id="hPgQsAuhn1gbhex_ZGjj-54" value="m_i2c_config" style="rounded=0;whiteSpace=wrap;html=1;align=center;" parent="1" vertex="1">
          <mxGeometry x="450" y="190" width="70" height="50" as="geometry" />
        </mxCell>
        <mxCell id="hPgQsAuhn1gbhex_ZGjj-43" value="" style="ellipse;whiteSpace=wrap;html=1;aspect=fixed;" parent="1" vertex="1">
          <mxGeometry x="250" y="120" width="10" height="10" as="geometry" />
        </mxCell>
        <mxCell id="vs8N0BFMu1eZq2mD2EDR-5" value="" style="rounded=0;whiteSpace=wrap;html=1;" vertex="1" parent="1">
          <mxGeometry x="210" width="350" height="90" as="geometry" />
        </mxCell>
        <mxCell id="vs8N0BFMu1eZq2mD2EDR-7" value="" style="endArrow=classic;html=1;rounded=0;exitX=0.5;exitY=1;exitDx=0;exitDy=0;entryX=0.5;entryY=0;entryDx=0;entryDy=0;" edge="1" parent="1" source="vs8N0BFMu1eZq2mD2EDR-30" target="hPgQsAuhn1gbhex_ZGjj-12">
          <mxGeometry width="50" height="50" relative="1" as="geometry">
            <mxPoint x="270" y="240" as="sourcePoint" />
            <mxPoint x="330" y="230" as="targetPoint" />
            <Array as="points" />
          </mxGeometry>
        </mxCell>
        <mxCell id="vs8N0BFMu1eZq2mD2EDR-9" value="" style="endArrow=classic;html=1;rounded=0;entryX=0.75;entryY=0;entryDx=0;entryDy=0;exitX=0.5;exitY=1;exitDx=0;exitDy=0;" edge="1" parent="1" source="vs8N0BFMu1eZq2mD2EDR-32">
          <mxGeometry width="50" height="50" relative="1" as="geometry">
            <mxPoint x="580" y="80" as="sourcePoint" />
            <mxPoint x="580" y="210" as="targetPoint" />
            <Array as="points">
              <mxPoint x="475" y="120" />
              <mxPoint x="580" y="120" />
            </Array>
          </mxGeometry>
        </mxCell>
        <mxCell id="vs8N0BFMu1eZq2mD2EDR-13" value="" style="verticalLabelPosition=bottom;verticalAlign=top;html=1;shape=mxgraph.basic.rect;fillColor2=none;strokeWidth=1;size=20;indent=5;" vertex="1" parent="1">
          <mxGeometry x="180" y="-130" width="500" height="110" as="geometry" />
        </mxCell>
        <mxCell id="hPgQsAuhn1gbhex_ZGjj-56" value="m_apb_seqs" style="rounded=0;whiteSpace=wrap;html=1;" parent="1" vertex="1">
          <mxGeometry x="220" y="-110" width="110" height="30" as="geometry" />
        </mxCell>
        <mxCell id="hPgQsAuhn1gbhex_ZGjj-57" value="m_i2c_seqs" style="rounded=0;whiteSpace=wrap;html=1;" parent="1" vertex="1">
          <mxGeometry x="410" y="-110" width="110" height="30" as="geometry" />
        </mxCell>
        <mxCell id="vs8N0BFMu1eZq2mD2EDR-14" value="" style="endArrow=classic;html=1;rounded=0;exitX=0.5;exitY=1;exitDx=0;exitDy=0;" edge="1" parent="1" source="vs8N0BFMu1eZq2mD2EDR-18">
          <mxGeometry width="50" height="50" relative="1" as="geometry">
            <mxPoint x="275.41" y="15" as="sourcePoint" />
            <mxPoint x="275" y="50" as="targetPoint" />
            <Array as="points" />
          </mxGeometry>
        </mxCell>
        <mxCell id="vs8N0BFMu1eZq2mD2EDR-17" value="apb_2_i2c_virtual seqs" style="text;html=1;strokeColor=none;fillColor=none;align=center;verticalAlign=middle;whiteSpace=wrap;rounded=0;" vertex="1" parent="1">
          <mxGeometry x="530" y="-120" width="160" height="10" as="geometry" />
        </mxCell>
        <mxCell id="vs8N0BFMu1eZq2mD2EDR-18" value="m_apb_seqr" style="rounded=0;whiteSpace=wrap;html=1;" vertex="1" parent="1">
          <mxGeometry x="220" y="-60" width="110" height="25" as="geometry" />
        </mxCell>
        <mxCell id="vs8N0BFMu1eZq2mD2EDR-19" value="m_i2c_seqr" style="rounded=0;whiteSpace=wrap;html=1;" vertex="1" parent="1">
          <mxGeometry x="410" y="-60" width="110" height="25" as="geometry" />
        </mxCell>
        <mxCell id="vs8N0BFMu1eZq2mD2EDR-20" value="" style="endArrow=classic;html=1;rounded=0;exitX=0.5;exitY=1;exitDx=0;exitDy=0;entryX=0.417;entryY=-0.114;entryDx=0;entryDy=0;entryPerimeter=0;" edge="1" parent="1" source="vs8N0BFMu1eZq2mD2EDR-19" target="vs8N0BFMu1eZq2mD2EDR-32">
          <mxGeometry width="50" height="50" relative="1" as="geometry">
            <mxPoint x="470" as="sourcePoint" />
            <mxPoint x="470" y="50" as="targetPoint" />
            <Array as="points" />
          </mxGeometry>
        </mxCell>
        <mxCell id="vs8N0BFMu1eZq2mD2EDR-21" value="" style="endArrow=none;dashed=1;html=1;dashPattern=1 3;strokeWidth=2;rounded=0;entryX=0.5;entryY=1;entryDx=0;entryDy=0;" edge="1" parent="1" target="hPgQsAuhn1gbhex_ZGjj-56">
          <mxGeometry width="50" height="50" relative="1" as="geometry">
            <mxPoint x="275" y="-30" as="sourcePoint" />
            <mxPoint x="320" y="50" as="targetPoint" />
          </mxGeometry>
        </mxCell>
        <mxCell id="vs8N0BFMu1eZq2mD2EDR-22" value="" style="endArrow=none;dashed=1;html=1;dashPattern=1 3;strokeWidth=2;rounded=0;entryX=0.5;entryY=1;entryDx=0;entryDy=0;exitX=0.5;exitY=0;exitDx=0;exitDy=0;" edge="1" parent="1" source="vs8N0BFMu1eZq2mD2EDR-19" target="hPgQsAuhn1gbhex_ZGjj-57">
          <mxGeometry width="50" height="50" relative="1" as="geometry">
            <mxPoint x="285" y="-20" as="sourcePoint" />
            <mxPoint x="285" y="-30" as="targetPoint" />
          </mxGeometry>
        </mxCell>
        <mxCell id="vs8N0BFMu1eZq2mD2EDR-24" value="" style="endArrow=none;html=1;rounded=0;entryX=0.507;entryY=0.012;entryDx=0;entryDy=0;entryPerimeter=0;exitX=1;exitY=1;exitDx=0;exitDy=0;" edge="1" parent="1" source="hPgQsAuhn1gbhex_ZGjj-43" target="hPgQsAuhn1gbhex_ZGjj-40">
          <mxGeometry width="50" height="50" relative="1" as="geometry">
            <mxPoint x="270" y="125" as="sourcePoint" />
            <mxPoint x="320" y="180" as="targetPoint" />
            <Array as="points">
              <mxPoint x="400" y="130" />
              <mxPoint x="400" y="260" />
              <mxPoint x="480" y="260" />
            </Array>
          </mxGeometry>
        </mxCell>
        <mxCell id="vs8N0BFMu1eZq2mD2EDR-30" value="m_apb_seqr" style="rounded=0;whiteSpace=wrap;html=1;" vertex="1" parent="1">
          <mxGeometry x="232.5" y="50" width="110" height="25" as="geometry" />
        </mxCell>
        <mxCell id="vs8N0BFMu1eZq2mD2EDR-31" value="virtual sequencer" style="text;html=1;strokeColor=none;fillColor=none;align=center;verticalAlign=middle;whiteSpace=wrap;rounded=0;" vertex="1" parent="1">
          <mxGeometry x="297.5" y="10" width="142.5" height="20" as="geometry" />
        </mxCell>
        <mxCell id="vs8N0BFMu1eZq2mD2EDR-32" value="m_i2c_seqr" style="rounded=0;whiteSpace=wrap;html=1;" vertex="1" parent="1">
          <mxGeometry x="420" y="50" width="110" height="25" as="geometry" />
        </mxCell>
      </root>
    </mxGraphModel>
  </diagram>
</mxfile>
